<mxfile host="app.diagrams.net" modified="2023-10-16T07:30:04.453Z" agent="Mozilla/5.0 (Windows NT 10.0; Win64; x64) AppleWebKit/537.36 (KHTML, like Gecko) Chrome/118.0.0.0 Safari/537.36 Edg/118.0.2088.46" etag="94tA9kA3IrGOuoGWGl8l" version="22.0.4" type="device" pages="2">
  <diagram name="Pagina-1" id="dXN6nbYDeSbwLNBfLyPJ">
    <mxGraphModel dx="1002" dy="569" grid="1" gridSize="10" guides="1" tooltips="1" connect="1" arrows="1" fold="1" page="1" pageScale="1" pageWidth="1169" pageHeight="827" math="0" shadow="0">
      <root>
        <mxCell id="0" />
        <mxCell id="1" parent="0" />
        <mxCell id="qWzRxnkHMNBf47REjgwJ-5" value="Voeding&lt;br&gt;24VDC&lt;br&gt;2.5A" style="html=1;whiteSpace=wrap;" parent="1" vertex="1">
          <mxGeometry x="120" y="389" width="110" height="50" as="geometry" />
        </mxCell>
        <mxCell id="qWzRxnkHMNBf47REjgwJ-12" value="" style="endArrow=none;html=1;rounded=0;" parent="1" edge="1">
          <mxGeometry width="50" height="50" relative="1" as="geometry">
            <mxPoint x="230" y="413" as="sourcePoint" />
            <mxPoint x="300" y="413" as="targetPoint" />
          </mxGeometry>
        </mxCell>
        <mxCell id="qWzRxnkHMNBf47REjgwJ-14" value="DC to DC converter" style="html=1;whiteSpace=wrap;" parent="1" vertex="1">
          <mxGeometry x="300" y="389" width="110" height="50" as="geometry" />
        </mxCell>
        <mxCell id="qWzRxnkHMNBf47REjgwJ-17" value="ESP-32" style="html=1;whiteSpace=wrap;" parent="1" vertex="1">
          <mxGeometry x="480" y="389" width="110" height="50" as="geometry" />
        </mxCell>
        <mxCell id="qWzRxnkHMNBf47REjgwJ-19" value="" style="endArrow=none;html=1;rounded=0;" parent="1" edge="1">
          <mxGeometry width="50" height="50" relative="1" as="geometry">
            <mxPoint x="410" y="413" as="sourcePoint" />
            <mxPoint x="480" y="413" as="targetPoint" />
          </mxGeometry>
        </mxCell>
        <mxCell id="qWzRxnkHMNBf47REjgwJ-20" value="5V" style="text;html=1;strokeColor=none;fillColor=none;align=center;verticalAlign=middle;whiteSpace=wrap;rounded=0;" parent="1" vertex="1">
          <mxGeometry x="410" y="384" width="60" height="30" as="geometry" />
        </mxCell>
        <mxCell id="qWzRxnkHMNBf47REjgwJ-22" value="Luidspreker" style="html=1;whiteSpace=wrap;" parent="1" vertex="1">
          <mxGeometry x="820" y="470" width="110" height="50" as="geometry" />
        </mxCell>
        <mxCell id="qWzRxnkHMNBf47REjgwJ-25" value="Ledstrips" style="html=1;whiteSpace=wrap;" parent="1" vertex="1">
          <mxGeometry x="820" y="530" width="110" height="50" as="geometry" />
        </mxCell>
        <mxCell id="qWzRxnkHMNBf47REjgwJ-31" value="Detectie" style="html=1;whiteSpace=wrap;" parent="1" vertex="1">
          <mxGeometry x="820" y="334" width="110" height="50" as="geometry" />
        </mxCell>
        <mxCell id="qWzRxnkHMNBf47REjgwJ-34" value="Media Player" style="html=1;whiteSpace=wrap;" parent="1" vertex="1">
          <mxGeometry x="640" y="470" width="110" height="50" as="geometry" />
        </mxCell>
        <mxCell id="qWzRxnkHMNBf47REjgwJ-43" value="" style="endArrow=none;html=1;rounded=0;" parent="1" edge="1">
          <mxGeometry width="50" height="50" relative="1" as="geometry">
            <mxPoint x="750" y="499" as="sourcePoint" />
            <mxPoint x="820" y="499" as="targetPoint" />
          </mxGeometry>
        </mxCell>
        <mxCell id="qWzRxnkHMNBf47REjgwJ-44" value="" style="endArrow=none;html=1;rounded=0;exitX=0;exitY=0.5;exitDx=0;exitDy=0;edgeStyle=orthogonalEdgeStyle;" parent="1" source="qWzRxnkHMNBf47REjgwJ-25" edge="1">
          <mxGeometry width="50" height="50" relative="1" as="geometry">
            <mxPoint x="210" y="464" as="sourcePoint" />
            <mxPoint x="260" y="414" as="targetPoint" />
          </mxGeometry>
        </mxCell>
        <mxCell id="qWzRxnkHMNBf47REjgwJ-46" value="" style="endArrow=none;html=1;rounded=0;exitX=0;exitY=0.25;exitDx=0;exitDy=0;entryX=0.5;entryY=1;entryDx=0;entryDy=0;edgeStyle=orthogonalEdgeStyle;" parent="1" source="qWzRxnkHMNBf47REjgwJ-34" target="qWzRxnkHMNBf47REjgwJ-17" edge="1">
          <mxGeometry width="50" height="50" relative="1" as="geometry">
            <mxPoint x="500" y="489" as="sourcePoint" />
            <mxPoint x="550" y="439" as="targetPoint" />
          </mxGeometry>
        </mxCell>
        <mxCell id="qWzRxnkHMNBf47REjgwJ-47" value="" style="endArrow=none;html=1;rounded=0;exitX=0;exitY=0.75;exitDx=0;exitDy=0;edgeStyle=orthogonalEdgeStyle;" parent="1" source="qWzRxnkHMNBf47REjgwJ-34" edge="1">
          <mxGeometry width="50" height="50" relative="1" as="geometry">
            <mxPoint x="390" y="464" as="sourcePoint" />
            <mxPoint x="440" y="414" as="targetPoint" />
          </mxGeometry>
        </mxCell>
        <mxCell id="qWzRxnkHMNBf47REjgwJ-50" value="" style="endArrow=none;html=1;rounded=0;entryX=0;entryY=0.5;entryDx=0;entryDy=0;edgeStyle=orthogonalEdgeStyle;" parent="1" target="qWzRxnkHMNBf47REjgwJ-31" edge="1">
          <mxGeometry width="50" height="50" relative="1" as="geometry">
            <mxPoint x="535" y="389" as="sourcePoint" />
            <mxPoint x="585" y="339" as="targetPoint" />
            <Array as="points">
              <mxPoint x="535" y="360" />
              <mxPoint x="820" y="360" />
            </Array>
          </mxGeometry>
        </mxCell>
        <mxCell id="qWzRxnkHMNBf47REjgwJ-51" value="MQTT" style="html=1;whiteSpace=wrap;" parent="1" vertex="1">
          <mxGeometry x="820" y="400" width="110" height="50" as="geometry" />
        </mxCell>
        <mxCell id="qWzRxnkHMNBf47REjgwJ-52" value="" style="endArrow=none;dashed=1;html=1;dashPattern=1 3;strokeWidth=2;rounded=0;entryX=0;entryY=0.5;entryDx=0;entryDy=0;" parent="1" edge="1">
          <mxGeometry width="50" height="50" relative="1" as="geometry">
            <mxPoint x="592" y="416" as="sourcePoint" />
            <mxPoint x="822" y="417" as="targetPoint" />
          </mxGeometry>
        </mxCell>
        <mxCell id="qWzRxnkHMNBf47REjgwJ-54" value="Wireless" style="text;html=1;strokeColor=none;fillColor=none;align=center;verticalAlign=middle;whiteSpace=wrap;rounded=0;" parent="1" vertex="1">
          <mxGeometry x="650" y="384" width="60" height="30" as="geometry" />
        </mxCell>
      </root>
    </mxGraphModel>
  </diagram>
  <diagram id="KOCiSwurHa8qSdXRThC4" name="DetectieFlowChart">
    <mxGraphModel dx="2004" dy="1138" grid="1" gridSize="10" guides="1" tooltips="1" connect="1" arrows="1" fold="1" page="1" pageScale="1" pageWidth="1169" pageHeight="827" math="0" shadow="0">
      <root>
        <mxCell id="0" />
        <mxCell id="1" parent="0" />
        <mxCell id="Xz6HySYgK4vOTwcW75Wa-1" value="" style="rounded=0;whiteSpace=wrap;html=1;" vertex="1" parent="1">
          <mxGeometry x="400" y="354" width="140" height="76" as="geometry" />
        </mxCell>
        <mxCell id="Xz6HySYgK4vOTwcW75Wa-2" value="&lt;h1&gt;&amp;nbsp; Tile&lt;/h1&gt;" style="text;html=1;strokeColor=none;fillColor=none;spacing=5;spacingTop=-20;whiteSpace=wrap;overflow=hidden;rounded=0;" vertex="1" parent="1">
          <mxGeometry x="430" y="370" width="125" height="70" as="geometry" />
        </mxCell>
        <mxCell id="Xz6HySYgK4vOTwcW75Wa-3" value="" style="endArrow=classic;html=1;rounded=0;entryX=-0.002;entryY=0.586;entryDx=0;entryDy=0;entryPerimeter=0;" edge="1" parent="1" target="Xz6HySYgK4vOTwcW75Wa-4">
          <mxGeometry width="50" height="50" relative="1" as="geometry">
            <mxPoint x="540" y="400" as="sourcePoint" />
            <mxPoint x="610" y="400" as="targetPoint" />
          </mxGeometry>
        </mxCell>
        <mxCell id="Xz6HySYgK4vOTwcW75Wa-4" value="" style="rounded=0;whiteSpace=wrap;html=1;" vertex="1" parent="1">
          <mxGeometry x="750" y="354" width="140" height="76" as="geometry" />
        </mxCell>
        <mxCell id="Xz6HySYgK4vOTwcW75Wa-5" value="&lt;h1&gt;Leds and&amp;nbsp;&lt;/h1&gt;&lt;h1&gt;sound on&lt;/h1&gt;" style="text;html=1;strokeColor=none;fillColor=none;spacing=5;spacingTop=-20;whiteSpace=wrap;overflow=hidden;rounded=0;" vertex="1" parent="1">
          <mxGeometry x="760" y="354" width="130" height="116" as="geometry" />
        </mxCell>
        <mxCell id="Xz6HySYgK4vOTwcW75Wa-6" value="" style="rounded=0;whiteSpace=wrap;html=1;" vertex="1" parent="1">
          <mxGeometry x="40" y="354" width="140" height="76" as="geometry" />
        </mxCell>
        <mxCell id="Xz6HySYgK4vOTwcW75Wa-7" value="&lt;h1&gt;&lt;br&gt;&lt;/h1&gt;" style="text;html=1;strokeColor=none;fillColor=none;spacing=5;spacingTop=-20;whiteSpace=wrap;overflow=hidden;rounded=0;" vertex="1" parent="1">
          <mxGeometry x="40" y="360" width="140" height="80" as="geometry" />
        </mxCell>
        <mxCell id="Xz6HySYgK4vOTwcW75Wa-8" value="&lt;h1&gt;Switch&lt;/h1&gt;" style="text;html=1;strokeColor=none;fillColor=none;spacing=5;spacingTop=-20;whiteSpace=wrap;overflow=hidden;rounded=0;" vertex="1" parent="1">
          <mxGeometry x="60" y="370" width="190" height="120" as="geometry" />
        </mxCell>
        <mxCell id="Xz6HySYgK4vOTwcW75Wa-9" value="" style="endArrow=classic;html=1;rounded=0;entryX=0.001;entryY=0.602;entryDx=0;entryDy=0;entryPerimeter=0;" edge="1" parent="1" target="Xz6HySYgK4vOTwcW75Wa-1">
          <mxGeometry width="50" height="50" relative="1" as="geometry">
            <mxPoint x="180" y="400" as="sourcePoint" />
            <mxPoint x="230" y="350" as="targetPoint" />
          </mxGeometry>
        </mxCell>
        <mxCell id="Xz6HySYgK4vOTwcW75Wa-10" value="&lt;h1&gt;ON&lt;/h1&gt;" style="text;html=1;strokeColor=none;fillColor=none;spacing=5;spacingTop=-20;whiteSpace=wrap;overflow=hidden;rounded=0;" vertex="1" parent="1">
          <mxGeometry x="260" y="370" width="190" height="120" as="geometry" />
        </mxCell>
        <mxCell id="Xz6HySYgK4vOTwcW75Wa-11" value="" style="endArrow=classic;html=1;rounded=0;" edge="1" parent="1">
          <mxGeometry width="50" height="50" relative="1" as="geometry">
            <mxPoint x="100" y="430" as="sourcePoint" />
            <mxPoint x="100" y="560" as="targetPoint" />
          </mxGeometry>
        </mxCell>
        <mxCell id="Xz6HySYgK4vOTwcW75Wa-12" value="&lt;h1&gt;OFF&lt;/h1&gt;" style="text;html=1;strokeColor=none;fillColor=none;spacing=5;spacingTop=-20;whiteSpace=wrap;overflow=hidden;rounded=0;" vertex="1" parent="1">
          <mxGeometry x="100" y="480" width="190" height="120" as="geometry" />
        </mxCell>
        <mxCell id="Xz6HySYgK4vOTwcW75Wa-13" value="" style="rounded=0;whiteSpace=wrap;html=1;" vertex="1" parent="1">
          <mxGeometry x="40" y="560" width="140" height="76" as="geometry" />
        </mxCell>
        <mxCell id="Xz6HySYgK4vOTwcW75Wa-14" value="&lt;h1&gt;Tegel uit&lt;/h1&gt;" style="text;html=1;strokeColor=none;fillColor=none;spacing=5;spacingTop=-20;whiteSpace=wrap;overflow=hidden;rounded=0;" vertex="1" parent="1">
          <mxGeometry x="50" y="580" width="190" height="120" as="geometry" />
        </mxCell>
        <mxCell id="Xz6HySYgK4vOTwcW75Wa-15" value="&lt;h1&gt;pressed&lt;/h1&gt;" style="text;html=1;strokeColor=none;fillColor=none;spacing=5;spacingTop=-20;whiteSpace=wrap;overflow=hidden;rounded=0;" vertex="1" parent="1">
          <mxGeometry x="585" y="360" width="190" height="120" as="geometry" />
        </mxCell>
        <mxCell id="Xz6HySYgK4vOTwcW75Wa-16" value="" style="rounded=0;whiteSpace=wrap;html=1;" vertex="1" parent="1">
          <mxGeometry x="400" y="560" width="140" height="76" as="geometry" />
        </mxCell>
        <mxCell id="Xz6HySYgK4vOTwcW75Wa-17" value="" style="endArrow=classic;html=1;rounded=0;entryX=0.5;entryY=0;entryDx=0;entryDy=0;entryPerimeter=0;" edge="1" parent="1" target="Xz6HySYgK4vOTwcW75Wa-16">
          <mxGeometry width="50" height="50" relative="1" as="geometry">
            <mxPoint x="470" y="430" as="sourcePoint" />
            <mxPoint x="520" y="380" as="targetPoint" />
          </mxGeometry>
        </mxCell>
        <mxCell id="Xz6HySYgK4vOTwcW75Wa-18" value="&lt;h1&gt;Not pressed&lt;/h1&gt;" style="text;html=1;strokeColor=none;fillColor=none;spacing=5;spacingTop=-20;whiteSpace=wrap;overflow=hidden;rounded=0;" vertex="1" parent="1">
          <mxGeometry x="490" y="460" width="190" height="120" as="geometry" />
        </mxCell>
        <mxCell id="Xz6HySYgK4vOTwcW75Wa-19" value="&lt;h1&gt;Leds and sound off&lt;/h1&gt;" style="text;html=1;strokeColor=none;fillColor=none;spacing=5;spacingTop=-20;whiteSpace=wrap;overflow=hidden;rounded=0;" vertex="1" parent="1">
          <mxGeometry x="410" y="570" width="190" height="120" as="geometry" />
        </mxCell>
      </root>
    </mxGraphModel>
  </diagram>
</mxfile>
